<svg width="160" height="160" viewBox="0 0 160 160" fill="none" xmlns="http://www.w3.org/2000/svg">
<g clip-path="url(#clip0_4821_2766)">
<rect x="50" width="10" height="10" fill="#B79476"/>
<rect x="60" width="10" height="10" fill="#B79476"/>
<rect x="70" width="10" height="10" fill="#B79476"/>
<rect x="80" width="10" height="10" fill="#B79476"/>
<rect x="90" width="10" height="10" fill="#B79476"/>
<rect x="100" width="10" height="10" fill="#B79476"/>
<rect x="30" y="10" width="10" height="10" fill="#B79476"/>
<rect x="40" y="10" width="10" height="10" fill="#B79476"/>
<rect x="110" y="10" width="10" height="10" fill="#B79476"/>
<rect x="120" y="10" width="10" height="10" fill="#B79476"/>
<rect x="20" y="20" width="10" height="10" fill="#B79476"/>
<rect x="130" y="20" width="10" height="10" fill="#B79476"/>
<rect x="10" y="30" width="10" height="10" fill="#B79476"/>
<rect x="50" y="30" width="10" height="10" fill="#B79476"/>
<rect x="140" y="30" width="10" height="10" fill="#B79476"/>
<rect x="10" y="40" width="10" height="10" fill="#B79476"/>
<rect x="40" y="40" width="10" height="10" fill="#B79476"/>
<rect x="140" y="40" width="10" height="10" fill="#B79476"/>
<rect y="50" width="10" height="10" fill="#B79476"/>
<rect x="30" y="50" width="10" height="10" fill="#B79476"/>
<rect x="70" y="50" width="10" height="10" fill="#B79476"/>
<rect x="80" y="50" width="10" height="10" fill="#B79476"/>
<rect x="150" y="50" width="10" height="10" fill="#B79476"/>
<rect y="60" width="10" height="10" fill="#B79476"/>
<rect x="60" y="60" width="10" height="10" fill="#B79476"/>
<rect x="90" y="60" width="10" height="10" fill="#B79476"/>
<rect x="150" y="60" width="10" height="10" fill="#B79476"/>
<rect y="70" width="10" height="10" fill="#B79476"/>
<rect x="50" y="70" width="10" height="10" fill="#B79476"/>
<rect x="100" y="70" width="10" height="10" fill="#B79476"/>
<rect x="150" y="70" width="10" height="10" fill="#B79476"/>
<rect y="80" width="10" height="10" fill="#B79476"/>
<rect x="50" y="80" width="10" height="10" fill="#B79476"/>
<rect x="100" y="80" width="10" height="10" fill="#B79476"/>
<rect x="150" y="80" width="10" height="10" fill="#B79476"/>
<rect y="90" width="10" height="10" fill="#B79476"/>
<rect x="60" y="90" width="10" height="10" fill="#B79476"/>
<rect x="90" y="90" width="10" height="10" fill="#B79476"/>
<rect x="150" y="90" width="10" height="10" fill="#B79476"/>
<rect y="100" width="10" height="10" fill="#B79476"/>
<rect x="70" y="100" width="10" height="10" fill="#B79476"/>
<rect x="80" y="100" width="10" height="10" fill="#B79476"/>
<rect x="120" y="100" width="10" height="10" fill="#B79476"/>
<rect x="150" y="100" width="10" height="10" fill="#B79476"/>
<rect x="10" y="110" width="10" height="10" fill="#B79476"/>
<rect x="110" y="110" width="10" height="10" fill="#B79476"/>
<rect x="140" y="110" width="10" height="10" fill="#B79476"/>
<rect x="10" y="120" width="10" height="10" fill="#B79476"/>
<rect x="100" y="120" width="10" height="10" fill="#B79476"/>
<rect x="140" y="120" width="10" height="10" fill="#B79476"/>
<rect x="20" y="130" width="10" height="10" fill="#B79476"/>
<rect x="130" y="130" width="10" height="10" fill="#B79476"/>
<rect x="30" y="140" width="10" height="10" fill="#B79476"/>
<rect x="40" y="140" width="10" height="10" fill="#B79476"/>
<rect x="110" y="140" width="10" height="10" fill="#B79476"/>
<rect x="120" y="140" width="10" height="10" fill="#B79476"/>
<rect x="50" y="150" width="10" height="10" fill="#B79476"/>
<rect x="60" y="150" width="10" height="10" fill="#B79476"/>
<rect x="70" y="150" width="10" height="10" fill="#B79476"/>
<rect x="80" y="150" width="10" height="10" fill="#B79476"/>
<rect x="90" y="150" width="10" height="10" fill="#B79476"/>
<rect x="100" y="150" width="10" height="10" fill="#B79476"/>
</g>
<defs>
<clipPath id="clip0_4821_2766">
<rect width="160" height="160" fill="white"/>
</clipPath>
</defs>
</svg>
